<svg xmlns:xlink="http://www.w3.org/1999/xlink" xmlns="http://www.w3.org/2000/svg" height="333" width="290" viewBox="0 0 290 332.997"><defs/><g transform="translate(1.500000,1.499900)" id="group1"><path fill-rule="nonzero" transform="translate(144.495000,272.999600)" stroke="#7d868c" fill="#ffffff" d="M.0,.0L143.0,.0L143.0,57.0L.0,57.0L.0,.0z" id="shape2" stroke-width="1"/><g id="group3"><g transform="translate(0.000000,75.500000)" id="shape4"><path fill-rule="nonzero" stroke="#333e48" fill="#ffffff" d="M.0,.0L287.5,.0L287.5,178.5L.0,178.5L.0,.0z" stroke-width="1.773329973220825"/><text style="fill:#333e48;font-family:Lato,PingFang SC,Mircrosoft YaHei,Arial;font-size:10.00pt" xml:space="preserve"><tspan style="font-family:Lato,PingFang SC,Mircrosoft YaHei,Arial" x="109.7" y="17.0">Shader core</tspan></text></g><g transform="translate(56.747500,56.994700)" id="shape5"><path stroke="#333e48" d="M.0,.0L-0.2,11.1" fill="none" stroke-width="1.333330035209656"/><path stroke-linecap="round" stroke="#333e48" fill="#333e48" d="M3.3,11.1L-0.3,18.0L-3.7,11.0L3.3,11.1" stroke-width="1"/></g><g transform="translate(0.000000,0.000100)" id="shape6"><path fill-rule="nonzero" stroke="#333e48" fill="#ffffff" d="M.0,.0L113.5,.0L113.5,57.0L.0,57.0L.0,.0z" stroke-width="1.773329973220825"/><text style="fill:#333e48;font-family:Lato,PingFang SC,Mircrosoft YaHei,Arial;font-size:10.00pt" xml:space="preserve"><tspan style="font-family:Lato,PingFang SC,Mircrosoft YaHei,Arial" x="15.7" y="25.5">Non-fragment</tspan><tspan style="font-family:Lato,PingFang SC,Mircrosoft YaHei,Arial" x="19.7" y="41.5">warp creator</tspan></text></g><g transform="translate(171.299000,0.000100)" id="shape7"><path fill-rule="nonzero" stroke="#333e48" fill="#ffffff" d="M.0,.0L116.2,.0L116.2,57.0L.0,57.0L.0,.0z" stroke-width="1.773329973220825"/><text style="fill:#333e48;font-family:Lato,PingFang SC,Mircrosoft YaHei,Arial;font-size:10.00pt" xml:space="preserve"><tspan style="font-family:Lato,PingFang SC,Mircrosoft YaHei,Arial" x="30.1" y="25.5">Fragment</tspan><tspan style="font-family:Lato,PingFang SC,Mircrosoft YaHei,Arial" x="21.1" y="41.5">warp creator</tspan></text></g><g transform="translate(15.495000,102.165800)" id="shape8"><path fill-rule="nonzero" stroke="#333e48" fill="#ffffff" d="M.0,.0L76.0,.0L76.0,45.8L.0,45.8L.0,.0z" stroke-width="1.773329973220825"/><text style="fill:#333e48;font-family:Lato,PingFang SC,Mircrosoft YaHei,Arial;font-size:10.00pt" xml:space="preserve"><tspan style="font-family:Lato,PingFang SC,Mircrosoft YaHei,Arial" x="9.5" y="19.9">Execution </tspan><tspan style="font-family:Lato,PingFang SC,Mircrosoft YaHei,Arial" x="13.5" y="35.9">engine 0</tspan></text></g><g transform="translate(229.397000,56.994700)" id="shape9"><path stroke="#333e48" d="M.0,.0L.1,12.1" fill="none" stroke-width="1.333330035209656"/><path stroke-linecap="round" stroke="#333e48" fill="#333e48" d="M3.5,12.1L.1,19.0L-3.4,12.1L3.5,12.1" stroke-width="1"/></g><g transform="translate(106.495000,102.624300)" id="shape10"><path fill-rule="nonzero" stroke-dasharray="4.43332,4.43332" stroke="#333e48" fill="#ffffff" d="M.0,.0L75.7,.0L75.7,45.1L.0,45.1L.0,.0z" stroke-width="1.773329973220825"/><text style="fill:#333e48;font-family:Lato,PingFang SC,Mircrosoft YaHei,Arial;font-size:10.00pt" xml:space="preserve"><tspan style="font-family:Lato,PingFang SC,Mircrosoft YaHei,Arial" x="9.3" y="19.6">Execution </tspan><tspan style="font-family:Lato,PingFang SC,Mircrosoft YaHei,Arial" x="13.3" y="35.6">engine 1</tspan></text></g><g transform="translate(196.855000,102.350200)" id="shape11"><path fill-rule="nonzero" stroke-dasharray="4.43332,4.43332" stroke="#333e48" fill="#ffffff" d="M.0,.0L75.6,.0L75.6,45.6L.0,45.6L.0,.0z" stroke-width="1.773329973220825"/><text style="fill:#333e48;font-family:Lato,PingFang SC,Mircrosoft YaHei,Arial;font-size:10.00pt" xml:space="preserve"><tspan style="font-family:Lato,PingFang SC,Mircrosoft YaHei,Arial" x="9.3" y="19.8">Execution </tspan><tspan style="font-family:Lato,PingFang SC,Mircrosoft YaHei,Arial" x="13.3" y="35.8">engine 2</tspan></text></g><g transform="translate(15.495000,163.000000)" id="shape12"><path fill-rule="nonzero" stroke="#333e48" fill="#ffffff" d="M.0,.0L257.0,.0L257.0,19.0L.0,19.0L.0,.0z" stroke-width="1.773329973220825"/><text style="fill:#333e48;font-family:Lato,PingFang SC,Mircrosoft YaHei,Arial;font-size:10.00pt" xml:space="preserve"><tspan style="font-family:Lato,PingFang SC,Mircrosoft YaHei,Arial" x="85.0" y="14.5">Message fabric</tspan></text></g><g transform="translate(15.495000,192.999800)" id="shape13"><path fill-rule="nonzero" stroke="#333e48" fill="#ffffff" d="M.0,.0L76.0,.0L76.0,45.8L.0,45.8L.0,.0z" stroke-width="1.773329973220825"/><text style="fill:#333e48;font-family:Lato,PingFang SC,Mircrosoft YaHei,Arial;font-size:10.00pt" xml:space="preserve"><tspan style="font-family:Lato,PingFang SC,Mircrosoft YaHei,Arial" x="7.0" y="19.9">Load/store</tspan><tspan style="font-family:Lato,PingFang SC,Mircrosoft YaHei,Arial" x="27.0" y="35.9">unit</tspan></text></g><g transform="translate(106.495000,193.458300)" id="shape14"><path fill-rule="nonzero" stroke="#333e48" fill="#ffffff" d="M.0,.0L75.7,.0L75.7,45.1L.0,45.1L.0,.0z" stroke-width="1.773329973220825"/><text style="fill:#333e48;font-family:Lato,PingFang SC,Mircrosoft YaHei,Arial;font-size:10.00pt" xml:space="preserve"><tspan style="font-family:Lato,PingFang SC,Mircrosoft YaHei,Arial" x="15.8" y="19.6">Varying </tspan><tspan style="font-family:Lato,PingFang SC,Mircrosoft YaHei,Arial" x="26.8" y="35.6">unit</tspan></text></g><g transform="translate(196.855000,193.184200)" id="shape15"><path fill-rule="nonzero" stroke="#333e48" fill="#ffffff" d="M.0,.0L75.6,.0L75.6,45.6L.0,45.6L.0,.0z" stroke-width="1.773329973220825"/><text style="fill:#333e48;font-family:Lato,PingFang SC,Mircrosoft YaHei,Arial;font-size:10.00pt" xml:space="preserve"><tspan style="font-family:Lato,PingFang SC,Mircrosoft YaHei,Arial" x="15.3" y="19.8">Texture </tspan><tspan style="font-family:Lato,PingFang SC,Mircrosoft YaHei,Arial" x="26.8" y="35.8">unit</tspan></text></g><g transform="translate(57.442500,254.003000)" id="shape16"><path stroke="#333e48" d="M.0,.0L.0,11.3" fill="none" stroke-width="1.333330035209656"/><path stroke-linecap="round" stroke="#333e48" fill="#333e48" d="M3.5,11.3L.0,18.2L-3.5,11.3L3.5,11.3" stroke-width="1"/></g><g transform="translate(0.747500,273.002600)" id="shape17"><path fill-rule="nonzero" stroke="#333e48" fill="#ffffff" d="M.0,.0L113.5,.0L113.5,57.0L.0,57.0L.0,.0z" stroke-width="1.773329973220825"/><text style="fill:#333e48;font-family:Lato,PingFang SC,Mircrosoft YaHei,Arial;font-size:10.00pt" xml:space="preserve"><tspan style="font-family:Lato,PingFang SC,Mircrosoft YaHei,Arial" x="40.7" y="25.5">Blend</tspan><tspan style="font-family:Lato,PingFang SC,Mircrosoft YaHei,Arial" x="45.7" y="41.5">unit</tspan></text></g></g><path fill-rule="nonzero" transform="translate(154.995000,281.000000)" stroke-dasharray="4.43332,4.43332" stroke="#7d868c" fill="#ffffff" d="M.0,.0L15.0,.0L15.0,40.0L.0,40.0L.0,.0z" id="shape18" stroke-width="1.773329973220825"/><g transform="translate(176.495000,276.972800)" id="shape19"><path fill-rule="nonzero" fill="#ffffff" d="M.0,.0L107.0,.0L107.0,48.8L.0,48.8L.0,.0z"/><text style="fill:#7d868c;font-family:Lato,PingFang SC,Mircrosoft YaHei,Arial;font-size:7.00pt" xml:space="preserve"><tspan style="font-family:Lato,PingFang SC,Mircrosoft YaHei,Arial" x="4.0" y="11.5">Dotted outlines indicate </tspan><tspan style="font-family:Lato,PingFang SC,Mircrosoft YaHei,Arial" x="4.0" y="22.5">components that are </tspan><tspan style="font-family:Lato,PingFang SC,Mircrosoft YaHei,Arial" x="4.0" y="33.5">optional in some product </tspan><tspan style="font-family:Lato,PingFang SC,Mircrosoft YaHei,Arial" x="4.0" y="44.5">configurations.   </tspan></text></g></g></svg>