<svg xmlns:xlink="http://www.w3.org/1999/xlink" xmlns="http://www.w3.org/2000/svg" viewBox="0 0 656 168" width="656" height="168"><defs/><g transform="translate(-188.00,-75.00)"><g transform="translate(189.000000,76.000000)" id="shape1"><path fill-rule="nonzero" fill="#ffffff" d="M.0,.0L87.0,.0L87.0,45.0L.0,45.0L.0,.0z" stroke="#333e48" stroke-width="1.773329973220825"/><text style="fill:#333e48;font-family:Lato,PingFang SC,Mircrosoft YaHei,Arial;font-size:10.00pt" xml:space="preserve"><tspan style="font-family:Lato,PingFang SC,Mircrosoft YaHei,Arial" x="22.7" y="27.3">Indices</tspan></text></g><g transform="translate(276.000000,227.000000)" id="shape2"><path stroke="#333e48" d="M.0,.0L360.1,.0" fill="none" stroke-width="1.333330035209656"/><path fill="#333e48" stroke="#333e48" d="M360.1,-3.5L367.0,.0L360.1,3.5L360.1,-3.5" stroke-width="1" stroke-linecap="round"/></g><g transform="translate(189.000000,136.000050)" id="shape3"><path fill-rule="nonzero" fill="#ffffff" d="M.0,.0L87.0,.0L87.0,45.0L.0,45.0L.0,.0z" stroke="#333e48" stroke-width="1.773329973220825"/><text style="fill:#333e48;font-family:Lato,PingFang SC,Mircrosoft YaHei,Arial;font-size:10.00pt" xml:space="preserve"><tspan style="font-family:Lato,PingFang SC,Mircrosoft YaHei,Arial" x="23.5" y="19.3">Vertex</tspan><tspan style="font-family:Lato,PingFang SC,Mircrosoft YaHei,Arial" x="17.9" y="36.1">positions</tspan></text></g><g transform="translate(189.000000,197.000000)" id="shape4"><path fill-rule="nonzero" fill="#ffffff" d="M.0,.0L87.0,.0L87.0,45.0L.0,45.0L.0,.0z" stroke="#333e48" stroke-width="1.773329973220825"/><text style="fill:#333e48;font-family:Lato,PingFang SC,Mircrosoft YaHei,Arial;font-size:10.00pt" xml:space="preserve"><tspan style="font-family:Lato,PingFang SC,Mircrosoft YaHei,Arial" x="23.5" y="19.3">Vertex</tspan><tspan style="font-family:Lato,PingFang SC,Mircrosoft YaHei,Arial" x="4.7" y="36.1">non-positions</tspan></text></g><g transform="translate(302.000000,76.000000)" id="shape5"><path fill-rule="nonzero" fill="#ffffff" d="M.0,.0L87.0,.0L87.0,44.5L.0,44.5L.0,.0z" stroke="#333e48" stroke-width="1.773329973220825"/><text style="fill:#333e48;font-family:Lato,PingFang SC,Mircrosoft YaHei,Arial;font-size:10.00pt" xml:space="preserve"><tspan style="font-family:Lato,PingFang SC,Mircrosoft YaHei,Arial" x="16.7" y="19.0">Primitive</tspan><tspan style="font-family:Lato,PingFang SC,Mircrosoft YaHei,Arial" x="15.9" y="35.8">assembly</tspan></text></g><g transform="translate(416.000000,76.000000)" id="shape6"><path fill-rule="nonzero" fill="#ffffff" d="M.0,.0L87.0,.0L87.0,105.0L.0,105.0L.0,.0z" stroke="#333e48" stroke-width="1.773329973220825"/><text style="fill:#333e48;font-family:Lato,PingFang SC,Mircrosoft YaHei,Arial;font-size:10.00pt" xml:space="preserve"><tspan style="font-family:Lato,PingFang SC,Mircrosoft YaHei,Arial" x="20.3" y="49.3">Position</tspan><tspan style="font-family:Lato,PingFang SC,Mircrosoft YaHei,Arial" x="20.7" y="66.1">shading</tspan></text></g><g transform="translate(529.000000,76.500000)" id="shape7"><path fill-rule="nonzero" fill="#ffffff" d="M.0,.0L87.0,.0L87.0,105.0L.0,105.0L.0,.0z" stroke="#333e48" stroke-width="1.773329973220825"/><text style="fill:#333e48;font-family:Lato,PingFang SC,Mircrosoft YaHei,Arial;font-size:10.00pt" xml:space="preserve"><tspan style="font-family:Lato,PingFang SC,Mircrosoft YaHei,Arial" x="23.1" y="49.3">Culling </tspan><tspan style="font-family:Lato,PingFang SC,Mircrosoft YaHei,Arial" x="16.7" y="66.1">and tiling</tspan></text></g><g transform="translate(756.000000,76.000000)" id="shape8"><path fill-rule="nonzero" fill="#ffffff" d="M.0,.0L87.0,.0L87.0,45.0L.0,45.0L.0,.0z" stroke="#333e48" stroke-width="1.773329973220825"/><text style="fill:#333e48;font-family:Lato,PingFang SC,Mircrosoft YaHei,Arial;font-size:10.00pt" xml:space="preserve"><tspan style="font-family:Lato,PingFang SC,Mircrosoft YaHei,Arial" x="23.1" y="27.3">Tile list</tspan></text></g><g transform="translate(756.000000,136.500000)" id="shape9"><path fill-rule="nonzero" fill="#ffffff" d="M.0,.0L87.0,.0L87.0,45.0L.0,45.0L.0,.0z" stroke="#333e48" stroke-width="1.773329973220825"/><text style="fill:#333e48;font-family:Lato,PingFang SC,Mircrosoft YaHei,Arial;font-size:10.00pt" xml:space="preserve"><tspan style="font-family:Lato,PingFang SC,Mircrosoft YaHei,Arial" x="21.1" y="19.3">Shaded</tspan><tspan style="font-family:Lato,PingFang SC,Mircrosoft YaHei,Arial" x="17.9" y="36.1">positions</tspan></text></g><g transform="translate(643.000000,197.000000)" id="shape10"><path fill-rule="nonzero" fill="#ffffff" d="M.0,.0L87.0,.0L87.0,45.0L.0,45.0L.0,.0z" stroke="#333e48" stroke-width="1.773329973220825"/><text style="fill:#333e48;font-family:Lato,PingFang SC,Mircrosoft YaHei,Arial;font-size:10.00pt" xml:space="preserve"><tspan style="font-family:Lato,PingFang SC,Mircrosoft YaHei,Arial" x="20.3" y="19.3">Varying</tspan><tspan style="font-family:Lato,PingFang SC,Mircrosoft YaHei,Arial" x="20.7" y="36.1">shading</tspan></text></g><g transform="translate(756.000000,197.000000)" id="shape11"><path fill-rule="nonzero" fill="#ffffff" d="M.0,.0L87.0,.0L87.0,45.0L.0,45.0L.0,.0z" stroke="#333e48" stroke-width="1.773329973220825"/><text style="fill:#333e48;font-family:Lato,PingFang SC,Mircrosoft YaHei,Arial;font-size:10.00pt" xml:space="preserve"><tspan style="font-family:Lato,PingFang SC,Mircrosoft YaHei,Arial" x="21.1" y="19.3">Shaded</tspan><tspan style="font-family:Lato,PingFang SC,Mircrosoft YaHei,Arial" x="4.7" y="36.1">non-positions</tspan></text></g><g transform="translate(730.186316,219.000000)" id="shape12"><path stroke="#333e48" d="M.0,.0L18.9,.0" fill="none" stroke-width="1.333330035209656"/><path fill="#333e48" stroke="#333e48" d="M18.9,-3.5L25.8,.0L18.9,3.5L18.9,-3.5" stroke-width="1" stroke-linecap="round"/></g><g transform="translate(616.000000,159.000000)" id="shape13"><path stroke="#333e48" d="M.0,.0L133.1,.0" fill="none" stroke-width="1.333330035209656"/><path fill="#333e48" stroke="#333e48" d="M133.1,-3.5L140.0,.0L133.1,3.5L133.1,-3.5" stroke-width="1" stroke-linecap="round"/></g><g transform="translate(616.000000,98.000000)" id="shape14"><path stroke="#333e48" d="M.0,.0L133.1,.0" fill="none" stroke-width="1.333330035209656"/><path fill="#333e48" stroke="#333e48" d="M133.1,-3.5L140.0,.0L133.1,3.5L133.1,-3.5" stroke-width="1" stroke-linecap="round"/></g><g transform="translate(503.000000,129.000000)" id="shape15"><path stroke="#333e48" d="M.0,.0L19.1,.0" fill="none" stroke-width="1.333330035209656"/><path fill="#333e48" stroke="#333e48" d="M19.1,-3.5L26.0,.0L19.1,3.5L19.1,-3.5" stroke-width="1" stroke-linecap="round"/></g><g transform="translate(276.000000,159.000000)" id="shape16"><path stroke="#333e48" d="M.0,.0L133.1,.0" fill="none" stroke-width="1.333330035209656"/><path fill="#333e48" stroke="#333e48" d="M133.1,-3.5L140.0,.0L133.1,3.5L133.1,-3.5" stroke-width="1" stroke-linecap="round"/></g><g transform="translate(276.000000,98.000000)" id="shape17"><path stroke="#333e48" d="M.0,.0L19.1,.0" fill="none" stroke-width="1.333330035209656"/><path fill="#333e48" stroke="#333e48" d="M19.1,-3.5L26.0,.0L19.1,3.5L19.1,-3.5" stroke-width="1" stroke-linecap="round"/></g><g transform="translate(389.000000,98.000000)" id="shape18"><path stroke="#333e48" d="M.0,.0L19.1,.0" fill="none" stroke-width="1.333330035209656"/><path fill="#333e48" stroke="#333e48" d="M19.1,-3.5L26.0,.0L19.1,3.5L19.1,-3.5" stroke-width="1" stroke-linecap="round"/></g><g transform="translate(573.000000,212.000000)" id="shape19"><path stroke="#333e48" d="M.0,.0L62.1,.0" fill="none" stroke-width="1.333330035209656" stroke-dasharray="3.33333,3.33333" stroke-linecap="square"/><path fill="#333e48" stroke="#333e48" d="M62.1,-3.5L69.0,.0L62.1,3.5L62.1,-3.5" stroke-width="1" stroke-linecap="round"/></g><path stroke="#333e48" d="M.0,.0L.0,29.5" fill="none" transform="translate(573.000000,182.450500)" id="shape20" stroke-width="1.333330035209656" stroke-dasharray="3.33333,3.33333" stroke-linecap="square"/><g transform="translate(576.203944,197.500000)" id="shape21"><path fill-rule="nonzero" fill="#ffffff" d="M.0,.0L57.6,.0L57.6,10.5L.0,10.5L.0,.0z"/><text style="fill:#333e48;font-family:Lato,PingFang SC,Mircrosoft YaHei,Arial;font-size:6.00pt" xml:space="preserve"><tspan style="font-family:Lato,PingFang SC,Mircrosoft YaHei,Arial" x="14.0" y="7.5">If visible</tspan></text></g></g></svg>