<svg xmlns:xlink="http://www.w3.org/1999/xlink" xmlns="http://www.w3.org/2000/svg" width="290" viewBox="0 0 290 242" height="242"><defs/><g id="group1" transform="translate(1.500000,1.500000)"><g id="shape2" transform="translate(0.000000,75.500000)"><path fill="#ffffff" stroke="#333e48" d="M.0,.0L287.5,.0L287.5,87.5L.0,87.5L.0,.0z" fill-rule="nonzero" stroke-width="1.773329973220825"/><text style="fill:#333e48;font-family:Lato,PingFang SC,Mircrosoft YaHei,Arial;font-size:10.00pt" xml:space="preserve"><tspan style="font-family:Lato,PingFang SC,Mircrosoft YaHei,Arial" x="109.7" y="17.0">Shader core</tspan></text></g><path id="shape3" fill="#ffffff" stroke="#7d868c" d="M.0,.0L143.0,.0L143.0,57.0L.0,57.0L.0,.0z" transform="translate(144.242500,182.002700)" fill-rule="nonzero" stroke-width="1"/><path id="shape4" fill="#ffffff" stroke-dasharray="4.43332,4.43332" stroke="#333e48" d="M.0,.0L75.7,.0L75.7,45.1L.0,45.1L.0,.0z" transform="translate(22.665000,95.449341)" fill-rule="nonzero" stroke-width="1.773329973220825"/><g id="shape5" transform="translate(56.747500,56.994700)"><path fill="none" stroke="#333e48" d="M.0,.0L-0.2,11.1" stroke-width="1.333330035209656"/><path stroke-linecap="round" fill="#333e48" stroke="#333e48" d="M3.3,11.1L-0.3,18.0L-3.7,11.0L3.3,11.1" stroke-width="1"/></g><g id="shape6" transform="translate(0.000000,-0.000000)"><path fill="#ffffff" stroke="#333e48" d="M.0,.0L113.5,.0L113.5,57.0L.0,57.0L.0,.0z" fill-rule="nonzero" stroke-width="1.773333311080933"/><text style="fill:#333e48;font-family:Lato,PingFang SC,Mircrosoft YaHei,Arial;font-size:10.00pt" xml:space="preserve"><tspan style="font-family:Lato,PingFang SC,Mircrosoft YaHei,Arial" x="15.7" y="25.5">Non-fragment</tspan><tspan style="font-family:Lato,PingFang SC,Mircrosoft YaHei,Arial" x="15.2" y="41.5">thread creator</tspan></text></g><g id="shape7" transform="translate(171.299000,0.000000)"><path fill="#ffffff" stroke="#333e48" d="M.0,.0L116.2,.0L116.2,57.0L.0,57.0L.0,.0z" fill-rule="nonzero" stroke-width="1.773329973220825"/><text style="fill:#333e48;font-family:Lato,PingFang SC,Mircrosoft YaHei,Arial;font-size:10.00pt" xml:space="preserve"><tspan style="font-family:Lato,PingFang SC,Mircrosoft YaHei,Arial" x="30.1" y="25.5">Fragment</tspan><tspan style="font-family:Lato,PingFang SC,Mircrosoft YaHei,Arial" x="16.6" y="41.5">thread creator</tspan></text></g><g id="shape8" transform="translate(15.495000,102.165568)"><path fill="#ffffff" stroke="#333e48" d="M.0,.0L76.0,.0L76.0,45.8L.0,45.8L.0,.0z" fill-rule="nonzero" stroke-width="1.773329973220825"/><text style="fill:#333e48;font-family:Lato,PingFang SC,Mircrosoft YaHei,Arial;font-size:10.00pt" xml:space="preserve"><tspan style="font-family:Lato,PingFang SC,Mircrosoft YaHei,Arial" x="7.5" y="19.9">Arithmetic</tspan><tspan style="font-family:Lato,PingFang SC,Mircrosoft YaHei,Arial" x="20.0" y="35.9">unit(s)</tspan></text></g><g id="shape9" transform="translate(229.397000,56.994700)"><path fill="none" stroke="#333e48" d="M.0,.0L.1,12.1" stroke-width="1.333330035209656"/><path stroke-linecap="round" fill="#333e48" stroke="#333e48" d="M3.5,12.1L.1,19.0L-3.4,12.1L3.5,12.1" stroke-width="1"/></g><g id="shape10" transform="translate(106.495000,102.165600)"><path fill="#ffffff" stroke="#333e48" d="M.0,.0L76.0,.0L76.0,45.8L.0,45.8L.0,.0z" fill-rule="nonzero" stroke-width="1.773329973220825"/><text style="fill:#333e48;font-family:Lato,PingFang SC,Mircrosoft YaHei,Arial;font-size:10.00pt" xml:space="preserve"><tspan style="font-family:Lato,PingFang SC,Mircrosoft YaHei,Arial" x="7.0" y="19.9">Load/store</tspan><tspan style="font-family:Lato,PingFang SC,Mircrosoft YaHei,Arial" x="27.0" y="35.9">unit</tspan></text></g><g id="shape11" transform="translate(197.495000,102.175300)"><path fill="#ffffff" stroke="#333e48" d="M.0,.0L75.6,.0L75.6,45.6L.0,45.6L.0,.0z" fill-rule="nonzero" stroke-width="1.773329973220825"/><text style="fill:#333e48;font-family:Lato,PingFang SC,Mircrosoft YaHei,Arial;font-size:10.00pt" xml:space="preserve"><tspan style="font-family:Lato,PingFang SC,Mircrosoft YaHei,Arial" x="15.3" y="19.8">Texture </tspan><tspan style="font-family:Lato,PingFang SC,Mircrosoft YaHei,Arial" x="26.8" y="35.8">unit</tspan></text></g><g id="shape12" transform="translate(57.190000,163.005350)"><path fill="none" stroke="#333e48" d="M.0,.0L.0,11.3" stroke-width="1.333330035209656"/><path stroke-linecap="round" fill="#333e48" stroke="#333e48" d="M3.5,11.3L.0,18.2L-3.5,11.3L3.5,11.3" stroke-width="1"/></g><g id="shape13" transform="translate(0.495000,182.005300)"><path fill="#ffffff" stroke="#333e48" d="M.0,.0L113.5,.0L113.5,57.0L.0,57.0L.0,.0z" fill-rule="nonzero" stroke-width="1.773329973220825"/><text style="fill:#333e48;font-family:Lato,PingFang SC,Mircrosoft YaHei,Arial;font-size:10.00pt" xml:space="preserve"><tspan style="font-family:Lato,PingFang SC,Mircrosoft YaHei,Arial" x="40.7" y="25.5">Blend</tspan><tspan style="font-family:Lato,PingFang SC,Mircrosoft YaHei,Arial" x="45.7" y="41.5">unit</tspan></text></g><path id="shape14" fill="#ffffff" stroke-dasharray="4.43332,4.43332" stroke="#7d868c" d="M.0,.0L15.0,.0L15.0,40.0L.0,40.0L.0,.0z" transform="translate(154.742500,190.002700)" fill-rule="nonzero" stroke-width="1.773329973220825"/><g id="shape15" transform="translate(176.242500,185.975151)"><path fill="#ffffff" d="M.0,.0L107.0,.0L107.0,48.8L.0,48.8L.0,.0z" fill-rule="nonzero"/><text style="fill:#7d868c;font-family:Lato,PingFang SC,Mircrosoft YaHei,Arial;font-size:7.00pt" xml:space="preserve"><tspan style="font-family:Lato,PingFang SC,Mircrosoft YaHei,Arial" x="4.5" y="11.4">Dotted outlines indicate </tspan><tspan style="font-family:Lato,PingFang SC,Mircrosoft YaHei,Arial" x="4.5" y="22.4">components that are </tspan><tspan style="font-family:Lato,PingFang SC,Mircrosoft YaHei,Arial" x="4.5" y="33.4">optional in some product </tspan><tspan style="font-family:Lato,PingFang SC,Mircrosoft YaHei,Arial" x="4.5" y="44.4">configurations.   </tspan></text></g></g></svg>